<?xml version="1.0" encoding="UTF-8" standalone="no"?>
<!-- Created with Inkscape (http://www.inkscape.org/) -->

<svg
   width="512"
   height="512"
   viewBox="0 0 135.46666 135.46667"
   version="1.1"
   id="svg10612"
   sodipodi:docname="logo.svg"
   inkscape:export-filename="C:\Users\doogl\Code\bigprint-js\public\logo512.png"
   inkscape:export-xdpi="96"
   inkscape:export-ydpi="96"
   inkscape:version="1.1 (c68e22c387, 2021-05-23)"
   xmlns:inkscape="http://www.inkscape.org/namespaces/inkscape"
   xmlns:sodipodi="http://sodipodi.sourceforge.net/DTD/sodipodi-0.dtd"
   xmlns="http://www.w3.org/2000/svg"
   xmlns:svg="http://www.w3.org/2000/svg">
  <sodipodi:namedview
     id="namedview10614"
     pagecolor="#ffffff"
     bordercolor="#666666"
     borderopacity="1.0"
     inkscape:pageshadow="2"
     inkscape:pageopacity="0.0"
     inkscape:pagecheckerboard="0"
     inkscape:document-units="mm"
     showgrid="false"
     units="px"
     inkscape:zoom="0.1105524"
     inkscape:cx="-1397.5274"
     inkscape:cy="741.72974"
     inkscape:window-width="1500"
     inkscape:window-height="930"
     inkscape:window-x="-6"
     inkscape:window-y="-6"
     inkscape:window-maximized="1"
     inkscape:current-layer="layer1" />
  <defs
     id="defs10609" />
  <g
     inkscape:label="Layer 1"
     inkscape:groupmode="layer"
     id="layer1">
    <path
       id="rect10934"
       style="fill:#fffa19;fill-opacity:1;stroke:#ff0000;stroke-width:10;stroke-linecap:round;stroke-miterlimit:4;stroke-dasharray:none"
       d="M 130.46666,76.332501 H 76.332501 V 130.46667 H 106.3901 c 13.33861,0 24.07656,-10.73795 24.07656,-24.07657 z" />
    <path
       id="rect10934-1"
       style="fill:#e4e034;stroke:#ff0000;stroke-width:4;stroke-linecap:round;stroke-miterlimit:4;stroke-dasharray:none"
       d="M 76.307754,255.25018 H 19.173247 v 57.1345 h 54.634397 c 1.385,0 2.50011,-1.11511 2.50011,-2.5001 z" />
    <path
       id="path10941"
       style="fill:#e4e034;stroke:#ff0000;stroke-width:4;stroke-linecap:round;stroke-miterlimit:4;stroke-dasharray:none"
       d="m -44.192266,189.38455 c -1.385,0 -2.500105,1.11511 -2.500105,2.50011 v 109.53337 c 0,1.38499 1.115105,2.5001 2.500105,2.5001 h 54.898975 v -57.1345 h 57.134496 v -54.89897 c 0,-1.385 -1.115107,-2.50011 -2.500106,-2.50011 z" />
    <path
       style="fill:none;stroke:#ff0101;stroke-width:4;stroke-linecap:butt;stroke-linejoin:miter;stroke-miterlimit:4;stroke-dasharray:none;stroke-opacity:1"
       d="M -47.428147,246.78363 H 10.706708 V 189.91801"
       id="path11217" />
    <g
       id="g12396"
       transform="translate(2.6458333,2.6458302)">
      <path
         id="path12025"
         style="fill:#fffa19;fill-opacity:1;stroke:#ff0000;stroke-width:10;stroke-linecap:round;stroke-miterlimit:4;stroke-dasharray:none"
         d="M 29.076565,5.0000031 C 15.737952,5.0000028 5,15.737955 5,29.076568 V 89.456347 C 5,102.79496 15.737952,113.53291 29.076565,113.53291 H 59.398746 V 59.398749 H 113.53291 V 29.076568 c 0,-13.338613 -10.73795,-24.0765649 -24.076566,-24.0765649 z" />
      <path
         style="fill:none;stroke:#ff0101;stroke-width:10;stroke-linecap:butt;stroke-linejoin:miter;stroke-miterlimit:4;stroke-dasharray:none;stroke-opacity:1"
         d="M 5.0769231,59.398749 H 59.398746 V 2.5384615"
         id="path12061" />
    </g>
  </g>
</svg>
